<svg width="18" height="18" viewBox="0 0 18 18" fill="none" xmlns="http://www.w3.org/2000/svg">
<path fill-rule="evenodd" clip-rule="evenodd" d="M9.00008 0.443359C4.40008 0.443359 0.666748 4.17669 0.666748 8.77669C0.666748 13.3767 4.40008 17.11 9.00008 17.11C13.6001 17.11 17.3334 13.3767 17.3334 8.77669C17.3334 4.17669 13.6001 0.443359 9.00008 0.443359ZM9.00008 15.4434C5.32508 15.4434 2.33341 12.4517 2.33341 8.7767C2.33341 5.1017 5.32508 2.11004 9.00008 2.11004C12.6751 2.11004 15.6667 5.1017 15.6667 8.7767C15.6667 12.4517 12.6751 15.4434 9.00008 15.4434ZM7.33341 10.585L12.8251 5.09333L14.0001 6.27666L7.33341 12.9433L4.00008 9.61L5.17508 8.435L7.33341 10.585Z" fill="#35BC6B"/>
</svg>
