<svg width="18" height="18" viewBox="0 0 18 18" fill="none" xmlns="http://www.w3.org/2000/svg">
<path fill-rule="evenodd" clip-rule="evenodd" d="M9.22909 0.443359C4.62909 0.443359 0.895752 4.17669 0.895752 8.77669C0.895752 13.3767 4.62909 17.11 9.22909 17.11C13.8291 17.11 17.5624 13.3767 17.5624 8.77669C17.5624 4.17669 13.8291 0.443359 9.22909 0.443359ZM9.22908 15.4434C5.55409 15.4434 2.56242 12.4517 2.56242 8.7767C2.56242 5.1017 5.55409 2.11004 9.22908 2.11004C12.9041 2.11004 15.8958 5.1017 15.8958 8.7767C15.8958 12.4517 12.9041 15.4434 9.22908 15.4434ZM7.56242 10.585L13.0541 5.09333L14.2291 6.27666L7.56242 12.9433L4.22909 9.61L5.40409 8.435L7.56242 10.585Z" fill="#92CD7F"/>
</svg>
