<svg width="18" height="18" viewBox="0 0 18 18" fill="none" xmlns="http://www.w3.org/2000/svg">
<path fill-rule="evenodd" clip-rule="evenodd" d="M9.01034 0.443359C4.41034 0.443359 0.677002 4.17669 0.677002 8.77669C0.677002 13.3767 4.41034 17.11 9.01034 17.11C13.6103 17.11 17.3437 13.3767 17.3437 8.77669C17.3437 4.17669 13.6103 0.443359 9.01034 0.443359ZM9.01033 15.4434C5.33534 15.4434 2.34367 12.4517 2.34367 8.7767C2.34367 5.1017 5.33534 2.11004 9.01033 2.11004C12.6853 2.11004 15.677 5.1017 15.677 8.7767C15.677 12.4517 12.6853 15.4434 9.01033 15.4434ZM7.34367 10.585L12.8353 5.09333L14.0103 6.27666L7.34367 12.9433L4.01034 9.61L5.18534 8.435L7.34367 10.585Z" fill="#CABA82"/>
</svg>
